#!OML:ASF I:\Actors\actors\Patient Classification 2\Patient 1\Session 1\actor1.ASF
:FULLY-SPECIFIED
:DEGREES
956
root -1.05364 18.0551 6.11366 -3.21584 -4.20871 -4.37372
lowerback 1.80763 0.399421 3.10576
upperback 0.0306537 0.619083 2.27138
thorax -0.974518 0.299296 0.57154
lowerneck -11.1839 -1.01229 -3.02525
upperneck 18.6457 -1.88995 5.34312
head 7.65818 -0.617873 2.07508
rclavicle -1.47846e-015 -2.48481e-014
rhumerus -45.6922 -5.32219 -84.6553
rradius 37.65
rwrist 22.0686
rhand -7.42753 -29.1997
rfingers 7.12502
rthumb 18.4596 -418.344
lclavicle -1.47846e-015 -2.48481e-014
lhumerus -40.2372 -0.127225 97.426
lradius 38.6178
lwrist -2.05147
lhand -7.22009 -26.5574
lfingers 7.12502
lthumb 18.6591 2.56765
rfemur 0 0 0
rtibia 0
rfoot 0 0
rtoes 0
lfemur 23.4047 -7.62891 -13.8635
ltibia -18.7571
lfoot -6.33491 24.5897
ltoes -10.398
957
root -1.05179 18.0547 6.11484 -3.25141 -4.22227 -4.26827
lowerback 1.78165 0.396551 3.0973
upperback 0.0528154 0.612269 2.196
thorax -0.936532 0.29631 0.499396
lowerneck -11.2186 -1.00599 -3.01129
upperneck 18.6776 -1.8871 5.35509
head 7.67478 -0.613682 2.07731
rclavicle 1.25483e-014 1.03368e-014
rhumerus -46.1952 -5.43296 -84.8429
rradius 37.2483
rwrist 22.9568
rhand -7.01722 -29.1728
rfingers 7.12502
rthumb 18.8543 -418.279
lclavicle 1.25483e-014 1.03368e-014
lhumerus -40.561 0.913007 97.2096
lradius 37.4916
lwrist -3.61462
lhand -6.81389 -25.0487
lfingers 7.12502
lthumb 19.0498 4.03844
rfemur 0 0 0
rtibia 0
rfoot 0 0
rtoes 0
lfemur 23.4058 -7.78778 -14.0421
ltibia -18.6532
lfoot -6.50543 24.7312
ltoes -10.0869
958
root -1.04948 18.0553 6.11537 -3.2608 -4.20362 -4.16985
lowerback 1.76364 0.377399 3.10393
upperback 0.0627982 0.584871 2.11297
thorax -0.91562 0.282722 0.411387
lowerneck -11.2296 -0.988601 -2.95378
upperneck 18.6563 -1.86106 5.29506
head 7.66758 -0.602873 2.05015
rclavicle -3.47873e-015 4.96962e-015
rhumerus -46.726 -5.41248 -85.1385
rradius 37.0424
rwrist 23.5623
rhand -6.63684 -29.1961
rfingers 7.12502
rthumb 19.2201 -418.266
lclavicle -3.47873e-015 4.96962e-015
lhumerus -40.8506 2.09127 96.7711
lradius 37.08
lwrist -0.937845
lhand -4.84568 -22.2833
lfingers 7.12502
lthumb 20.9417 6.60623
rfemur 0 0 0
rtibia 0
rfoot 0 0
rtoes 0
lfemur 23.3518 -7.94062 -14.2041
ltibia -18.5285
lfoot -6.66623 24.8447
ltoes -9.84098
959
root -1.05113 18.0577 6.106 -3.24538 -4.07372 -4.12162
lowerback 1.88684 0.313864 3.07757
upperback 0.038619 0.505847 2.05199
thorax -1.01039 0.242103 0.36471
lowerneck -11.2782 -0.971255 -2.91674
upperneck 18.6469 -1.83549 5.25768
head 7.67149 -0.591002 2.034
rclavicle 8.79622e-015 -1.27222e-014
rhumerus -47.2277 -5.27819 -85.5231
rradius 36.9667
rwrist 23.8143
rhand -6.08301 -29.3958
rfingers 7.12502
rthumb 19.7526 -418.412
lclavicle 8.79622e-015 -1.27222e-014
lhumerus -40.2178 3.9734 95.8589
lradius 35.2694
lwrist 3.98697
lhand -3.88717 -20.8573
lfingers 7.12502
lthumb 21.8623 7.92764
rfemur 0 0 0
rtibia 0
rfoot 0 0
rtoes 0
lfemur 23.1747 -7.88191 -14.2031
ltibia -18.3776
lfoot -6.61605 24.6958
ltoes -10.1136
960
root -1.05659 18.0611 6.09156 -3.21057 -3.92526 -4.037
lowerback 2.07276 0.253044 2.96013
upperback -0.0121294 0.43198 1.99378
thorax -1.16829 0.203769 0.371605
lowerneck -11.2808 -0.977344 -2.92425
upperneck 18.6132 -1.84483 5.27658
head 7.66155 -0.59452 2.04021
rclavicle -1.06598e-014 1.53064e-014
rhumerus -47.7197 -5.17774 -85.8714
rradius 37.0187
rwrist 23.3344
rhand -5.48007 -30.0424
rfingers 7.12502
rthumb 20.3321 -418.998
lclavicle -1.06598e-014 1.53064e-014
lhumerus -40.2664 5.7769 94.8669
lradius 34.941
lwrist 7.20391
lhand -4.73696 -21.0108
lfingers 7.12502
lthumb 21.0461 7.86718
rfemur 0 0 0
rtibia 0
rfoot 0 0
rtoes 0
lfemur 22.9321 -7.68549 -14.1832
ltibia -18.2186
lfoot -6.45408 24.398
ltoes -10.6094
961
root -1.06184 18.064 6.07967 -3.17823 -3.82885 -3.89404
lowerback 2.21665 0.22639 2.81321
upperback -0.0554578 0.399762 1.91485
thorax -1.29431 0.186895 0.373056
lowerneck -11.1539 -0.994127 -2.91215
upperneck 18.4038 -1.85164 5.21576
head 7.56965 -0.606125 2.01524
rclavicle 8.74031e-015 -2.38542e-015
rhumerus -48.2115 -5.22164 -86.1204
rradius 37.2949
rwrist 21.7723
rhand -5.44766 -31.26
rfingers 7.12502
rthumb 20.3633 -420.212
lclavicle 8.74031e-015 -2.38542e-015
lhumerus -40.6185 7.27127 93.8424
lradius 35.2119
lwrist 8.06148
lhand -5.89488 -22.1327
lfingers 7.12502
lthumb 19.9334 6.86497
rfemur 0 0 0
rtibia 0
rfoot 0 0
rtoes 0
lfemur 22.7326 -7.59873 -14.2742
ltibia -18.0743
lfoot -6.40006 24.2237
ltoes -10.8629
